# xmcd CD database file
#
# Track frame offsets:
#	150
#	17487
#	36532
#	52403
#	73257
#	91994
#	109364
#	127319
#	146083
#	162016
#	180611
#	197917
#	213200
#	229210
#	246018
#	262043
#	283284
#	299583
#	315251
#	330618
#
# Disc length: 4724 seconds
#
# Revision: 1
# Processed by: cddbd v1.5.2PL0 Copyright (c) Steve Scherf et al.
# Submitted via: CDex 1.51
#
DISCID=46127214
DTITLE=Various Artist - ZM-Pop-B-Disc-4
DYEAR=1900
DGENRE=Blues
TTITLE0=Lana Del Rey and Cedric Gervais - Summertime Sadness
TTITLE1=London Grammar - Strong
TTITLE2=Lorde - Royals
TTITLE3=Macklemore and Ryan Lewis - Can't Hold Us
TTITLE4=Macklemore and Ryan Lewis - Thrift Shop
TTITLE5=Matt Cardle and Melanie C - Loving You
TTITLE6=McFly - Love Is Easy
TTITLE7=McFly - Love Is On The Radio
TTITLE8=Michael Buble - It's A Beautiful Day
TTITLE9=Miley Cyrus - We Can't Stop
TTITLE10=Miley Cyrus - Wrecking Ball
TTITLE11=Naughty Boy Ft Emeli Sande - Lifted
TTITLE12=Naughty Boy Ft Sam Smith - La La La
TTITLE13=Nelly - Hey Porsche
TTITLE14=Nicole Scherzinger - Booerang
TTITLE15=Olly Murs - Army Of Two
TTITLE16=Olly Murs - Dear Darlin'
TTITLE17=Olly Murs - Hand On Heart
TTITLE18=Olly Murs - Right Place Right Time
TTITLE19=Rudimental Ft Ella Eyre - Waiting All Night
EXTD=
EXTT0=
EXTT1=
EXTT2=
EXTT3=
EXTT4=
EXTT5=
EXTT6=
EXTT7=
EXTT8=
EXTT9=
EXTT10=
EXTT11=
EXTT12=
EXTT13=
EXTT14=
EXTT15=
EXTT16=
EXTT17=
EXTT18=
EXTT19=
PLAYORDER=
